<?xml version="1.0" standalone="no"?>
<!DOCTYPE svg PUBLIC "-//W3C//DTD SVG 20010904//EN"
 "http://www.w3.org/TR/2001/REC-SVG-20010904/DTD/svg10.dtd">
<svg version="1.0" xmlns="http://www.w3.org/2000/svg"
 width="900.000000pt" height="900.000000pt" viewBox="0 0 900.000000 900.000000"
 preserveAspectRatio="xMidYMid meet">
<metadata>
Created by potrace 1.11, written by Peter Selinger 2001-2013
</metadata>
<g transform="translate(0.000000,900.000000) scale(0.100000,-0.100000)"
fill="#000000" stroke="none">
<path d="M7631 7635 c-821 -821 -1361 -1369 -1355 -1374 5 -5 49 -37 98 -72
106 -74 192 -147 302 -255 705 -694 957 -1730 650 -2674 -42 -129 -75 -211
-146 -351 -182 -365 -447 -683 -771 -925 -136 -102 -242 -167 -392 -240 -73
-36 -141 -70 -151 -76 -11 -6 -31 -14 -45 -18 -14 -5 -57 -20 -96 -35 -95 -35
-306 -90 -440 -114 -343 -60 -722 -46 -1070 40 -598 149 -1121 504 -1488 1009
-50 69 -93 127 -97 130 -23 16 -185 338 -217 428 -18 52 -26 61 -38 42 -3 -5
-14 -10 -23 -10 -9 0 -50 -12 -89 -26 -71 -26 -91 -48 -57 -61 8 -3 13 -12 10
-20 -4 -10 1 -13 17 -11 13 2 21 -2 19 -9 -1 -7 2 -13 8 -13 5 0 10 5 10 10 0
6 8 10 17 10 13 0 14 -3 5 -12 -15 -15 -16 -38 -2 -38 6 0 10 8 11 18 0 13 2
12 9 -5 6 -13 18 -23 30 -23 27 0 26 19 -2 29 -21 8 -21 8 6 15 16 4 31 5 34
1 3 -3 -1 -5 -8 -5 -9 0 -7 -5 5 -14 11 -8 23 -12 27 -10 4 2 9 0 13 -6 3 -5
1 -10 -4 -10 -6 0 -11 -9 -11 -20 0 -11 -4 -20 -9 -20 -5 0 -12 -7 -15 -16 -5
-13 -4 -14 7 -6 11 9 17 6 28 -16 8 -15 18 -30 24 -34 16 -12 36 -9 34 5 -1 6
3 23 10 37 l12 25 -6 -25 c-2 -14 -5 -37 -5 -52 0 -22 -5 -28 -22 -29 -21 -1
-21 -1 4 -10 18 -7 29 -20 33 -40 5 -20 13 -29 26 -29 10 0 19 -4 19 -10 0 -5
-4 -10 -10 -10 -20 0 -9 -21 15 -30 18 -7 25 -17 25 -35 0 -14 5 -25 11 -25 5
0 7 5 4 10 -3 5 -1 10 4 10 17 0 13 -15 -9 -41 -18 -21 -19 -22 -14 -4 5 16 4
17 -4 5 -6 -8 -8 -18 -6 -22 7 -11 -31 -49 -1415 -1433 -622 -621 -1131 -1133
-1131 -1137 0 -5 2023 -8 4495 -8 l4495 0 0 4500 c0 2475 -1 4500 -2 4500 -2
0 -617 -614 -1367 -1365z m-5371 -4553 c0 -5 -7 -9 -15 -9 -8 0 -15 4 -15 9 0
4 7 8 15 8 8 0 15 -4 15 -8z m5 -32 c3 -5 -1 -10 -10 -10 -9 0 -13 5 -10 10 3
6 8 10 10 10 2 0 7 -4 10 -10z m45 0 c0 -5 -7 -10 -16 -10 -8 0 -12 5 -9 10 3
6 10 10 16 10 5 0 9 -4 9 -10z m17 -12 c-3 -8 -6 -5 -6 6 -1 11 2 17 5 13 3
-3 4 -12 1 -19z m103 -97 c0 -5 3 -17 6 -25 5 -12 2 -15 -10 -10 -17 7 -22 44
-6 44 6 0 10 -4 10 -9z m85 -91 c17 -18 17 -20 2 -14 -13 4 -17 1 -17 -15 0
-12 5 -21 10 -21 6 0 10 -9 10 -20 0 -22 15 -27 23 -7 3 7 6 5 6 -5 1 -19 -16
-23 -37 -10 -12 8 -31 112 -20 112 3 0 13 -9 23 -20z m70 -140 c3 -5 1 -10 -4
-10 -6 0 -11 5 -11 10 0 6 2 10 4 10 3 0 8 -4 11 -10z m45 -60 c0 -5 -2 -10
-4 -10 -3 0 -8 5 -11 10 -3 6 -1 10 4 10 6 0 11 -4 11 -10z"/>
<path d="M4648 7780 c-92 -23 -186 -64 -265 -117 -75 -49 -93 -64 -184 -150
-56 -54 -83 -73 -103 -73 -15 0 -62 -7 -104 -16 -259 -52 -448 -247 -528 -544
-24 -91 -25 -310 0 -400 27 -97 61 -175 105 -240 l40 -58 -62 -38 c-34 -20
-114 -76 -177 -123 -464 -347 -798 -875 -917 -1446 -13 -66 -28 -124 -33 -130
-22 -28 -61 -144 -58 -177 1 -20 -1 -40 -4 -43 -4 -4 -27 5 -53 20 -41 24 -54
27 -109 23 -74 -6 -164 -49 -216 -103 -29 -30 -33 -40 -34 -94 0 -34 -2 -61
-3 -61 -1 0 -26 6 -56 14 -73 19 -137 6 -205 -41 -59 -40 -112 -102 -112 -129
0 -11 13 -46 28 -79 25 -53 39 -67 108 -114 43 -30 83 -57 87 -61 5 -4 -21
-31 -58 -60 -78 -62 -115 -120 -115 -179 0 -74 65 -178 133 -212 64 -33 130
-23 255 40 174 88 318 137 453 155 l46 7 38 -108 c52 -144 173 -382 267 -523
243 -365 565 -647 958 -838 245 -120 460 -188 725 -229 151 -24 544 -24 699 0
514 79 973 303 1338 653 344 330 576 730 687 1186 108 445 91 917 -51 1342
-129 388 -315 688 -607 976 -191 189 -377 325 -597 437 l-90 46 -1 231 c-1
405 -54 642 -190 842 -106 155 -333 316 -548 389 -143 48 -349 59 -487 25z
m276 -125 c152 -40 257 -153 320 -346 22 -69 33 -147 40 -279 5 -90 -27 -350
-43 -350 -9 1 -101 97 -238 251 -145 162 -243 255 -338 319 -112 76 -167 101
-345 157 -11 3 -4 14 25 39 209 182 408 253 579 209z m473 -186 c74 -56 129
-111 174 -175 34 -50 97 -174 110 -218 58 -193 71 -310 45 -378 -46 -115 -161
-152 -233 -75 -45 48 -51 76 -68 287 -8 107 -20 231 -26 275 -13 97 -57 275
-71 292 -6 7 -7 13 -3 13 4 0 2 7 -5 15 -26 31 10 14 77 -36z m-1167 -139 c41
-6 104 -20 140 -31 57 -19 167 -70 195 -91 57 -43 58 -47 10 -23 -141 71 -416
105 -571 70 -144 -32 -234 -79 -313 -163 -34 -36 -40 -40 -25 -16 37 60 69 97
124 139 103 78 191 109 350 123 8 1 49 -3 90 -8z m-260 -240 l35 -19 -57 1
c-66 1 -82 -8 -155 -80 -126 -125 -180 -269 -171 -457 4 -81 12 -114 53 -220
4 -11 -3 -5 -14 13 -12 19 -33 68 -47 109 -66 197 -11 433 134 582 87 89 151
110 222 71z m1193 -641 c42 -42 47 -52 47 -92 0 -24 2 -66 5 -93 l6 -49 -21
37 c-25 47 -78 100 -133 135 -33 22 -53 27 -97 26 -89 -1 -118 -18 -249 -137
-113 -103 -241 -196 -272 -196 -15 0 -38 9 -53 21 -25 20 -26 20 -26 1 0 -30
42 -85 80 -104 19 -10 53 -18 75 -18 39 0 41 -2 43 -32 6 -95 32 -160 32 -81
0 81 73 187 155 224 37 17 155 27 155 13 0 -3 -10 -14 -22 -24 l-23 -18 28
-13 c39 -18 34 -58 -10 -79 -36 -17 -39 -28 -19 -69 15 -27 14 -28 -37 -62
-68 -45 -107 -118 -114 -215 l-5 -69 32 62 c41 82 114 148 188 169 97 28 189
15 357 -51 13 -5 6 6 -19 33 -22 23 -40 51 -42 64 -1 13 -10 52 -19 88 -28
108 -81 189 -155 238 l-35 23 50 -7 c55 -8 112 -28 136 -50 11 -10 17 -34 18
-81 1 -36 4 -70 7 -75 9 -14 128 -87 135 -82 4 2 10 23 13 47 11 70 75 185
128 230 75 63 148 64 218 1 60 -55 102 -164 108 -284 5 -107 -5 -156 -44 -217
-38 -58 -88 -78 -135 -52 -19 10 -19 12 15 49 19 21 40 56 45 77 23 86 -27
213 -85 213 -18 0 -24 5 -24 23 0 31 27 67 50 67 23 0 73 -58 66 -77 -3 -8 -1
-11 4 -8 30 18 -8 130 -55 161 -52 34 -125 -7 -159 -87 -32 -76 -29 -176 8
-384 20 -106 20 -237 1 -310 -19 -71 -72 -190 -93 -207 -8 -7 -18 -22 -23 -35
-5 -13 -14 -23 -20 -23 -9 0 -10 21 -6 75 3 45 2 73 -4 70 -5 -4 -9 -13 -9
-21 0 -8 -20 -54 -45 -104 -48 -95 -110 -179 -184 -248 -85 -81 -230 -169
-254 -156 -7 4 -8 3 -4 -1 13 -15 -104 -47 -189 -52 -166 -11 -305 35 -388
128 -25 28 -46 57 -46 64 0 22 -124 257 -185 349 -32 49 -72 123 -88 165 -28
71 -30 89 -38 271 -5 107 -11 229 -14 270 -4 52 -2 82 7 99 16 30 79 64 110
59 21 -3 20 -5 -15 -25 -71 -42 -98 -155 -58 -243 11 -24 17 -49 14 -57 -4
-10 4 -8 28 6 50 28 95 35 145 21 24 -7 44 -14 44 -16 0 -2 -12 -43 -26 -91
-18 -63 -26 -114 -27 -179 -2 -82 0 -94 24 -130 22 -32 36 -42 77 -52 73 -19
180 -7 250 29 31 15 60 25 65 22 6 -3 7 -1 4 4 -4 6 2 18 13 28 67 61 54 123
-38 179 -32 19 -71 40 -87 46 l-30 11 36 -33 c102 -94 91 -156 -33 -186 -87
-22 -156 -14 -177 19 -26 43 -24 111 8 274 36 182 41 294 15 371 -16 50 -62
120 -71 110 -3 -3 -2 -11 4 -18 5 -7 15 -26 22 -42 l12 -29 -33 25 c-44 32
-119 63 -190 78 -58 11 -58 12 -58 48 0 43 32 111 63 133 12 9 36 19 53 23 30
7 31 6 42 -45 13 -53 47 -119 62 -119 4 0 10 10 14 23 11 44 88 147 137 183
42 30 149 81 149 71 0 -2 -24 -20 -53 -40 -51 -36 -124 -113 -115 -123 3 -2
16 4 29 15 89 69 218 105 419 116 143 8 227 23 285 52 46 22 47 22 118 -48z
m-77 -494 c13 -27 24 -60 24 -71 0 -20 -3 -21 -45 -11 -40 9 -44 13 -38 31 5
12 8 47 8 79 0 50 2 55 14 40 7 -10 24 -40 37 -68z m-1301 -7 c12 -38 19 -118
25 -289 5 -129 14 -257 21 -285 18 -73 60 -161 124 -260 32 -48 80 -136 107
-194 94 -200 108 -225 150 -269 62 -63 135 -108 233 -139 46 -15 85 -29 85
-32 0 -3 -28 -16 -62 -29 -111 -42 -178 -105 -178 -164 0 -8 -62 -74 -137
-146 -133 -128 -138 -131 -165 -120 -23 9 -33 8 -55 -7 -49 -31 -133 -129
-133 -153 0 -6 -4 -11 -9 -11 -20 0 -131 -113 -131 -132 0 -14 -5 -18 -16 -14
-9 3 -20 6 -25 6 -6 0 -8 4 -5 8 2 4 -3 8 -12 9 -21 1 -215 74 -222 83 -3 4
-21 10 -40 14 -19 3 -59 17 -88 31 -30 14 -60 25 -68 25 -8 0 -14 4 -14 9 0 5
-10 13 -22 17 -13 4 -25 9 -28 13 -3 3 -22 19 -43 34 -21 16 -34 33 -31 39 4
6 3 8 -3 5 -13 -8 -79 55 -88 83 -3 11 -11 20 -17 20 -5 0 -8 7 -5 14 4 9 1
13 -6 10 -13 -4 -27 19 -128 218 -39 76 -81 145 -94 155 l-23 18 29 115 c143
553 493 1022 993 1332 34 21 62 38 63 38 1 0 9 -24 18 -52z m367 20 c-9 -9 -8
-14 5 -23 23 -17 8 -55 -23 -55 -27 0 -30 -14 -9 -50 20 -35 19 -37 -22 -43
-84 -14 -78 -17 -81 43 -4 63 10 96 53 122 34 20 97 26 77 6z m796 -11 c2 -11
-3 -17 -16 -17 -24 0 -32 8 -25 26 7 20 37 13 41 -9z m1034 1 c13 -13 41 -30
83 -52 18 -10 72 -46 100 -68 6 -4 37 -28 70 -52 80 -59 240 -219 330 -331
222 -277 377 -607 444 -950 81 -414 41 -862 -110 -1240 -41 -104 -115 -251
-130 -261 -9 -5 -10 -2 -6 9 4 10 2 17 -4 17 -7 0 -9 -9 -6 -21 6 -23 -13 -64
-55 -120 -16 -20 -28 -40 -28 -45 0 -5 -11 -21 -25 -36 -14 -15 -25 -31 -25
-36 0 -15 -46 -53 -55 -45 -4 5 -5 2 -1 -5 5 -8 -7 -31 -30 -60 -41 -49 -204
-216 -264 -267 -87 -76 -261 -193 -362 -244 -16 -8 -28 -18 -28 -23 0 -4 -5
-8 -10 -8 -6 0 -34 -12 -63 -26 -141 -69 -363 -151 -375 -139 -3 3 -10 1 -16
-4 -21 -16 -66 -22 -66 -9 0 8 -5 6 -11 -5 -15 -26 -29 -20 -29 12 0 30 28 50
50 36 11 -7 68 5 179 36 36 10 69 15 74 12 6 -3 7 -1 3 5 -5 8 0 12 14 12 11
0 26 5 33 10 7 6 40 30 74 54 33 25 64 53 67 63 5 15 49 48 143 108 9 6 65 46
124 90 160 118 163 120 172 117 4 -1 7 5 7 13 0 8 3 15 8 15 4 0 45 36 91 79
54 51 90 77 100 74 11 -3 12 -2 4 4 -16 11 11 48 28 37 8 -4 10 -3 5 5 -4 6 2
24 12 39 36 49 54 134 51 235 -2 50 0 101 5 112 5 14 5 16 -2 6 -19 -26 -23 1
-26 151 0 36 -4 64 -8 61 -18 -10 -6 20 28 73 30 46 36 66 37 115 1 32 -1 59
-5 59 -5 0 -8 14 -8 30 0 17 5 30 13 30 9 0 9 2 -1 9 -7 4 -17 36 -22 70 -5
35 -17 72 -26 82 -23 26 -66 147 -91 257 -7 29 -63 74 -97 78 -14 1 -26 -1
-26 -5 0 -7 -139 -36 -144 -29 -41 59 -86 120 -105 144 -15 17 -44 53 -66 80
-48 59 -189 209 -230 244 -47 41 -125 85 -193 110 -46 17 -70 33 -97 66 -45
55 -91 101 -107 107 -8 3 16 32 59 73 69 66 153 175 153 198 0 6 9 28 20 49
26 49 60 194 60 257 0 28 3 49 8 48 4 -1 20 2 36 7 20 5 31 4 37 -6 7 -11 9
-11 9 2 0 9 11 20 24 23 53 13 110 86 145 185 19 53 23 85 23 178 0 62 4 113
8 113 5 0 15 -6 22 -12z m-1789 -83 c1 -5 -6 -11 -15 -13 -11 -2 -18 3 -18 13
0 17 30 18 33 0z m27 -85 c0 -5 -7 -10 -16 -10 -8 0 -12 5 -9 10 3 6 10 10 16
10 5 0 9 -4 9 -10z m730 -1295 c-44 -56 -170 -179 -204 -197 -18 -10 -19 -7
-13 43 4 30 7 74 7 100 l0 45 93 23 c50 12 106 28 122 35 17 7 32 12 34 10 2
-2 -15 -28 -39 -59z m310 -1 c0 -14 -13 -46 -30 -71 -16 -24 -30 -46 -30 -49
0 -2 -8 -12 -17 -22 -10 -10 -46 -47 -79 -83 -34 -35 -78 -79 -97 -98 l-35
-33 -69 33 c-37 19 -70 35 -73 37 -5 4 0 8 90 77 29 22 89 71 134 109 136 115
150 125 184 125 17 1 22 -5 22 -25z m-2627 -71 c8 -10 25 -42 36 -70 45 -114
139 -287 202 -370 21 -29 39 -57 39 -63 0 -5 -23 -10 -52 -11 -29 -1 -64 -4
-78 -8 -20 -6 -13 -10 45 -26 130 -35 424 -139 571 -203 186 -80 391 -209 488
-305 112 -113 111 -111 96 -159 -33 -100 -94 -184 -162 -219 -63 -32 -128 -26
-225 22 -46 23 -83 46 -83 50 0 5 -5 9 -11 9 -6 0 -28 14 -49 30 -21 17 -66
50 -99 73 -33 23 -94 66 -135 95 -42 28 -79 52 -82 52 -4 0 -15 6 -23 14 -58
50 -248 129 -352 145 -34 6 -63 12 -65 14 -2 2 5 21 15 43 22 46 55 164 47
171 -3 3 -31 -21 -63 -54 -99 -101 -227 -184 -256 -166 -5 3 -7 2 -4 -4 3 -5
-26 -17 -66 -28 -157 -39 -238 -69 -374 -137 -160 -80 -190 -84 -238 -27 -21
26 -24 37 -19 68 4 20 18 51 32 70 23 31 134 111 154 111 5 0 9 -15 8 -32 -7
-122 9 -191 23 -102 20 122 151 282 289 352 68 35 192 72 241 72 16 0 26 4 22
10 -8 13 -207 13 -264 -1 -52 -12 -61 -8 -23 12 15 8 30 17 33 22 3 4 38 15
77 25 68 16 73 19 96 62 37 66 106 145 167 192 49 37 51 40 24 35 -108 -20
-102 -20 -108 5 -4 12 -7 60 -7 106 0 79 2 85 29 113 34 33 79 39 104 12z
m2892 -23 l25 -10 -26 -52 c-15 -29 -31 -56 -36 -59 -17 -11 10 -20 29 -11 50
26 115 52 127 52 15 0 126 -164 126 -186 0 -8 5 -14 10 -14 6 0 10 -5 10 -10
0 -6 9 -30 20 -52 26 -54 25 -64 -7 -103 -34 -39 -101 -125 -112 -144 -7 -11
-32 -8 -137 18 -71 17 -174 36 -229 42 -112 12 -295 5 -334 -14 -20 -9 -32
-33 -57 -112 -51 -157 -112 -403 -131 -530 -3 -21 -12 -57 -19 -78 -8 -22 -14
-47 -14 -57 0 -27 -40 -120 -77 -176 -45 -70 -113 -104 -222 -111 l-80 -6 -5
34 c-12 72 -16 129 -16 259 -1 113 3 151 24 230 31 119 95 307 130 383 14 32
26 60 26 64 0 10 54 116 70 137 45 59 143 147 158 142 9 -3 47 -10 84 -16 38
-6 79 -15 93 -22 27 -12 32 -9 191 127 38 33 81 69 95 80 79 66 169 143 199
172 38 36 46 38 85 23z m-919 -107 c-13 -36 -12 -42 2 -57 19 -19 3 -22 -21
-3 -15 11 -14 16 5 60 25 57 34 57 14 0z m-112 5 c-2 -7 -19 -20 -37 -28 -22
-11 -41 -33 -61 -73 -16 -32 -30 -56 -32 -54 -2 2 8 32 21 68 17 43 34 70 53
81 32 21 64 23 56 6z m-2178 -164 c32 -19 63 -39 68 -44 5 -5 -3 -27 -19 -53
-24 -38 -35 -46 -74 -53 -43 -8 -51 -6 -126 34 -102 54 -113 65 -92 86 9 9 18
16 21 16 3 0 22 11 42 25 54 37 106 34 180 -11z m2002 -37 c-3 -15 -112 -107
-125 -107 -8 0 118 120 125 120 2 0 2 -6 0 -13z m169 -89 c11 -22 9 -41 -12
-126 -14 -56 -41 -145 -61 -199 -74 -206 -177 -562 -240 -835 l-18 -78 -40 7
c-23 3 -42 7 -44 8 -9 8 50 424 79 560 20 92 90 380 98 405 5 14 15 45 22 70
32 114 95 195 164 213 30 7 39 3 52 -25z m1857 -79 c10 -52 7 -107 -7 -121 -8
-7 -62 -35 -120 -62 -59 -27 -106 -50 -104 -52 2 -2 35 3 73 11 86 18 208 20
221 3 16 -20 31 -78 35 -128 l3 -45 -70 -13 c-188 -34 -352 -82 -513 -150 -42
-18 -74 -26 -78 -20 -8 13 5 76 23 113 8 16 38 52 67 79 28 27 44 47 36 43 -8
-3 -42 -17 -75 -31 -64 -27 -143 -34 -163 -14 -26 26 -14 74 31 117 129 125
321 228 522 281 101 27 111 26 119 -11z m-4355 -48 l79 -40 -51 -80 c-29 -44
-57 -80 -63 -80 -6 -1 -48 24 -94 54 -46 30 -91 57 -101 60 -11 4 -19 10 -19
14 0 5 -14 14 -31 21 l-31 13 38 33 c21 19 39 32 42 30 2 -2 18 2 35 10 47 21
105 10 196 -35z m2073 -80 l95 -88 -32 -84 c-18 -46 -42 -115 -55 -154 -27
-83 -25 -81 -43 -64 -84 82 -213 183 -246 194 -39 12 -18 82 37 122 l30 22 43
-29 c24 -16 59 -41 77 -56 43 -36 40 -20 -9 45 -40 52 -59 90 -59 115 0 19 39
66 54 66 7 0 56 -40 108 -89z m1468 -142 c10 -14 -2 -99 -13 -92 -6 3 -7 1 -3
-6 4 -6 12 -9 17 -6 5 4 9 1 9 -4 0 -16 55 -89 84 -112 14 -11 26 -26 26 -34
0 -25 58 -156 85 -190 16 -21 35 -35 48 -35 17 0 28 -12 46 -50 13 -27 29 -50
35 -50 17 0 -39 -27 -71 -34 -31 -7 -83 17 -128 58 -37 34 -95 50 -175 49
-104 -1 -161 -10 -220 -32 -30 -12 -56 -21 -56 -21 -1 0 1 11 4 25 2 14 9 25
14 25 6 0 5 7 -2 15 -15 18 -2 95 32 205 24 76 104 229 124 237 8 3 14 9 14
14 0 6 9 23 21 38 20 27 23 28 62 18 23 -6 44 -14 47 -18z m824 -267 c2 -4 7
-26 10 -47 2 -22 12 -83 21 -135 9 -52 17 -142 18 -200 1 -95 -1 -110 -26
-161 -38 -79 -158 -200 -282 -287 -33 -23 -78 -54 -100 -70 -66 -46 -66 -46
-50 -8 35 84 16 74 -79 -41 -171 -208 -342 -307 -522 -302 -71 2 -76 3 -110
38 -89 90 -77 158 20 121 42 -16 32 12 -14 40 -22 14 -40 28 -40 31 0 3 -22
21 -49 39 -27 19 -56 46 -65 61 -16 28 -22 109 -8 109 5 0 45 -9 91 -21 45
-11 85 -19 87 -16 3 2 -42 32 -98 66 -57 33 -110 67 -119 74 -27 21 -39 54
-39 105 l0 49 143 6 c153 7 217 15 217 27 0 4 -13 10 -29 13 -17 4 -46 13 -65
21 l-36 15 18 30 c9 16 27 35 40 40 37 17 215 45 242 38 14 -3 56 -29 93 -56
82 -60 127 -70 215 -47 92 23 432 174 432 192 0 3 -26 4 -58 3 -33 -1 -63 1
-69 4 -22 14 -43 77 -43 130 0 45 4 59 26 80 14 15 43 29 63 33 20 3 59 12 86
19 61 16 72 17 79 7z m-3474 -89 c126 -42 285 -140 446 -274 284 -236 446
-311 574 -266 l35 13 0 -353 c0 -206 -4 -353 -9 -353 -5 0 -56 25 -112 55
-402 212 -728 544 -938 955 -45 88 -106 230 -106 247 0 6 55 -6 110 -24z
m2031 -630 c21 -19 29 -35 27 -52 -3 -23 -13 -28 -118 -59 -63 -19 -160 -42
-215 -53 -116 -22 -378 -35 -480 -22 l-70 8 3 60 c1 32 4 60 5 61 1 1 27 -2
57 -6 92 -14 188 -17 289 -9 113 10 332 52 411 79 30 10 56 19 58 19 1 1 16
-11 33 -26z m-16 -243 c9 -17 29 -43 45 -59 25 -23 30 -36 30 -76 0 -56 17
-96 81 -190 45 -66 48 -74 50 -143 1 -40 -1 -75 -4 -78 -9 -10 -308 -17 -387
-10 l-76 7 -44 136 c-24 74 -49 136 -54 138 -157 38 -206 72 -227 158 -17 73
-29 38 -18 -57 8 -72 43 -204 58 -216 13 -11 30 -50 37 -85 6 -33 5 -37 -12
-32 -11 3 -50 13 -89 22 -38 9 -79 21 -90 25 -11 5 -41 14 -67 20 -26 7 -52
18 -57 24 -5 6 -13 105 -17 220 l-7 209 28 -7 c62 -16 361 -25 489 -15 104 8
302 32 313 38 1 0 10 -13 18 -29z"/>
<path d="M5147 5466 c-27 -41 -148 -132 -232 -176 -159 -80 -330 -120 -558
-127 -122 -4 -170 -9 -173 -18 -6 -16 70 -171 99 -202 11 -13 26 -23 33 -23 7
0 23 -12 36 -28 37 -44 82 -71 138 -83 65 -14 342 4 415 27 28 8 58 17 68 19
55 12 112 85 161 210 15 39 35 78 43 87 24 27 26 331 2 336 -9 1 -23 -8 -32
-22z m-29 -196 c-3 -27 -11 -57 -18 -66 -8 -8 -91 -54 -184 -101 -94 -47 -162
-83 -151 -80 11 2 80 21 153 40 116 31 132 34 132 19 -1 -27 -53 -114 -80
-134 -47 -34 -175 -59 -331 -65 -141 -6 -146 -5 -182 18 -20 13 -37 28 -37 32
0 4 14 13 30 18 17 6 30 14 30 19 0 11 -37 20 -82 20 -20 0 -44 3 -53 6 -15 6
-45 53 -45 72 0 5 44 12 98 15 260 17 503 92 657 200 28 20 54 36 59 36 5 1 6
-21 4 -49z"/>
<path d="M2920 4491 c0 -6 4 -13 10 -16 6 -3 7 1 4 9 -7 18 -14 21 -14 7z"/>
<path d="M2961 4434 c0 -11 3 -14 6 -6 3 7 2 16 -1 19 -3 4 -6 -2 -5 -13z"/>
<path d="M2954 4267 c3 -10 6 -21 6 -23 0 -2 9 -4 20 -4 11 0 20 5 20 11 0 5
-5 7 -12 3 -6 -4 -18 2 -26 12 -14 18 -14 18 -8 1z"/>
<path d="M2871 4244 c0 -11 3 -14 6 -6 3 7 2 16 -1 19 -3 4 -6 -2 -5 -13z"/>
<path d="M3015 4230 c-3 -5 -1 -10 4 -10 6 0 11 5 11 10 0 6 -2 10 -4 10 -3 0
-8 -4 -11 -10z"/>
<path d="M2968 4213 c7 -3 16 -2 19 1 4 3 -2 6 -13 5 -11 0 -14 -3 -6 -6z"/>
<path d="M3145 4090 c3 -5 8 -10 11 -10 2 0 4 5 4 10 0 6 -5 10 -11 10 -5 0
-7 -4 -4 -10z"/>
<path d="M2985 4060 c3 -5 8 -10 11 -10 2 0 4 5 4 10 0 6 -5 10 -11 10 -5 0
-7 -4 -4 -10z"/>
<path d="M3034 4028 c-4 -7 -4 -10 1 -6 4 4 15 2 23 -5 12 -10 14 -9 11 2 -7
20 -26 25 -35 9z"/>
<path d="M3295 3920 c3 -5 11 -10 16 -10 6 0 7 5 4 10 -3 6 -11 10 -16 10 -6
0 -7 -4 -4 -10z"/>
<path d="M3635 3770 c3 -5 10 -10 16 -10 5 0 9 5 9 10 0 6 -7 10 -16 10 -8 0
-12 -4 -9 -10z"/>
<path d="M5971 5914 c0 -11 3 -14 6 -6 3 7 2 16 -1 19 -3 4 -6 -2 -5 -13z"/>
<path d="M6028 5893 c7 -3 16 -2 19 1 4 3 -2 6 -13 5 -11 0 -14 -3 -6 -6z"/>
<path d="M5976 5878 c3 -5 10 -6 15 -3 13 9 11 12 -6 12 -8 0 -12 -4 -9 -9z"/>
<path d="M6166 5795 c4 -8 8 -15 10 -15 2 0 4 7 4 15 0 8 -4 15 -10 15 -5 0
-7 -7 -4 -15z"/>
<path d="M6162 5735 c0 -16 2 -22 5 -12 2 9 2 23 0 30 -3 6 -5 -1 -5 -18z"/>
<path d="M5965 5710 c3 -5 8 -10 11 -10 2 0 4 5 4 10 0 6 -5 10 -11 10 -5 0
-7 -4 -4 -10z"/>
<path d="M6030 5690 c0 -5 5 -10 11 -10 5 0 7 5 4 10 -3 6 -8 10 -11 10 -2 0
-4 -4 -4 -10z"/>
<path d="M6065 5610 c-3 -5 -1 -10 4 -10 6 0 11 5 11 10 0 6 -2 10 -4 10 -3 0
-8 -4 -11 -10z"/>
<path d="M5877 5465 c-4 -8 -2 -17 3 -20 6 -4 10 3 10 14 0 25 -6 27 -13 6z"/>
<path d="M5695 5440 c-3 -5 -1 -10 4 -10 6 0 11 5 11 10 0 6 -2 10 -4 10 -3 0
-8 -4 -11 -10z"/>
<path d="M5811 5144 c0 -11 3 -14 6 -6 3 7 2 16 -1 19 -3 4 -6 -2 -5 -13z"/>
<path d="M5750 5065 c0 -8 4 -15 10 -15 5 0 7 7 4 15 -4 8 -8 15 -10 15 -2 0
-4 -7 -4 -15z"/>
<path d="M5556 5024 c-9 -24 -7 -28 9 -14 17 14 20 30 6 30 -5 0 -12 -7 -15
-16z"/>
<path d="M5530 4980 c0 -5 5 -10 10 -10 6 0 10 5 10 10 0 6 -4 10 -10 10 -5 0
-10 -4 -10 -10z"/>
<path d="M5700 4979 c0 -5 5 -7 10 -4 6 3 10 8 10 11 0 2 -4 4 -10 4 -5 0 -10
-5 -10 -11z"/>
<path d="M5405 4860 c-3 -5 -1 -10 4 -10 6 0 11 5 11 10 0 6 -2 10 -4 10 -3 0
-8 -4 -11 -10z"/>
<path d="M5620 4806 c0 -2 8 -10 18 -17 15 -13 16 -12 3 4 -13 16 -21 21 -21
13z"/>
<path d="M5521 4774 c0 -11 3 -14 6 -6 3 7 2 16 -1 19 -3 4 -6 -2 -5 -13z"/>
<path d="M5510 4740 c0 -5 7 -7 15 -4 8 4 15 8 15 10 0 2 -7 4 -15 4 -8 0 -15
-4 -15 -10z"/>
<path d="M5750 4600 c8 -5 20 -10 25 -10 6 0 3 5 -5 10 -8 5 -19 10 -25 10 -5
0 -3 -5 5 -10z"/>
<path d="M5807 4599 c7 -7 15 -10 18 -7 3 3 -2 9 -12 12 -14 6 -15 5 -6 -5z"/>
<path d="M5940 4492 c0 -5 7 -9 15 -9 8 0 15 4 15 9 0 4 -7 8 -15 8 -8 0 -15
-4 -15 -8z"/>
<path d="M6010 4453 c-13 -15 -12 -16 4 -10 10 4 20 7 22 7 2 0 4 5 4 10 0 15
-13 12 -30 -7z"/>
<path d="M5926 4443 c-6 -14 -5 -15 5 -6 7 7 10 15 7 18 -3 3 -9 -2 -12 -12z"/>
<path d="M6125 4330 c-3 -5 -1 -10 4 -10 6 0 11 5 11 10 0 6 -2 10 -4 10 -3 0
-8 -4 -11 -10z"/>
<path d="M6250 4260 c0 -5 5 -10 11 -10 5 0 7 5 4 10 -3 6 -8 10 -11 10 -2 0
-4 -4 -4 -10z"/>
<path d="M6325 4170 c-3 -5 -1 -10 4 -10 6 0 11 5 11 10 0 6 -2 10 -4 10 -3 0
-8 -4 -11 -10z"/>
<path d="M6640 4075 c0 -5 5 -17 10 -25 5 -8 10 -10 10 -5 0 6 -5 17 -10 25
-5 8 -10 11 -10 5z"/>
<path d="M6540 4045 c0 -8 4 -15 10 -15 5 0 7 7 4 15 -4 8 -8 15 -10 15 -2 0
-4 -7 -4 -15z"/>
<path d="M6595 3890 c-3 -5 -1 -10 4 -10 6 0 11 5 11 10 0 6 -2 10 -4 10 -3 0
-8 -4 -11 -10z"/>
<path d="M6740 3573 c0 -15 19 -37 26 -31 3 4 -1 14 -10 23 -9 9 -16 13 -16 8z"/>
<path d="M6790 3541 c0 -5 5 -13 10 -16 6 -3 10 -2 10 4 0 5 -4 13 -10 16 -5
3 -10 2 -10 -4z"/>
<path d="M6600 3481 c0 -6 4 -13 10 -16 6 -3 7 1 4 9 -7 18 -14 21 -14 7z"/>
<path d="M6541 3274 c0 -11 3 -14 6 -6 3 7 2 16 -1 19 -3 4 -6 -2 -5 -13z"/>
<path d="M6561 3174 c0 -11 3 -14 6 -6 3 7 2 16 -1 19 -3 4 -6 -2 -5 -13z"/>
<path d="M6660 2909 c0 -5 5 -7 10 -4 6 3 10 8 10 11 0 2 -4 4 -10 4 -5 0 -10
-5 -10 -11z"/>
<path d="M6542 2785 c0 -16 2 -22 5 -12 2 9 2 23 0 30 -3 6 -5 -1 -5 -18z"/>
<path d="M6512 2710 c0 -14 2 -19 5 -12 2 6 2 18 0 25 -3 6 -5 1 -5 -13z"/>
<path d="M6312 2460 c0 -14 2 -19 5 -12 2 6 2 18 0 25 -3 6 -5 1 -5 -13z"/>
<path d="M6088 2333 c6 -2 18 -2 25 0 6 3 1 5 -13 5 -14 0 -19 -2 -12 -5z"/>
<path d="M6025 2260 c-3 -5 -1 -10 4 -10 6 0 11 5 11 10 0 6 -2 10 -4 10 -3 0
-8 -4 -11 -10z"/>
<path d="M5851 2184 c0 -11 3 -14 6 -6 3 7 2 16 -1 19 -3 4 -6 -2 -5 -13z"/>
<path d="M5548 2003 c7 -3 16 -2 19 1 4 3 -2 6 -13 5 -11 0 -14 -3 -6 -6z"/>
<path d="M3850 3060 c0 -5 5 -10 10 -10 6 0 10 5 10 10 0 6 -4 10 -10 10 -5 0
-10 -4 -10 -10z"/>
<path d="M3750 2990 c-9 -6 -10 -10 -3 -10 6 0 15 5 18 10 8 12 4 12 -15 0z"/>
<path d="M5448 3663 c7 -3 16 -2 19 1 4 3 -2 6 -13 5 -11 0 -14 -3 -6 -6z"/>
<path d="M5331 3424 c0 -11 3 -14 6 -6 3 7 2 16 -1 19 -3 4 -6 -2 -5 -13z"/>
<path d="M5335 3270 c3 -5 8 -10 11 -10 2 0 4 5 4 10 0 6 -5 10 -11 10 -5 0
-7 -4 -4 -10z"/>
<path d="M5311 3234 c0 -11 3 -14 6 -6 3 7 2 16 -1 19 -3 4 -6 -2 -5 -13z"/>
<path d="M5255 3140 c3 -5 8 -10 11 -10 2 0 4 5 4 10 0 6 -5 10 -11 10 -5 0
-7 -4 -4 -10z"/>
<path d="M5680 3139 c0 -5 5 -7 10 -4 6 3 10 8 10 11 0 2 -4 4 -10 4 -5 0 -10
-5 -10 -11z"/>
<path d="M5730 3096 c0 -2 9 -6 20 -9 11 -3 18 -1 14 4 -5 9 -34 13 -34 5z"/>
<path d="M5778 3063 c6 -2 18 -2 25 0 6 3 1 5 -13 5 -14 0 -19 -2 -12 -5z"/>
<path d="M6168 3133 c7 -3 16 -2 19 1 4 3 -2 6 -13 5 -11 0 -14 -3 -6 -6z"/>
<path d="M6302 2940 c0 -14 2 -19 5 -12 2 6 2 18 0 25 -3 6 -5 1 -5 -13z"/>
<path d="M5091 2524 c0 -11 3 -14 6 -6 3 7 2 16 -1 19 -3 4 -6 -2 -5 -13z"/>
<path d="M4778 2643 c7 -3 16 -2 19 1 4 3 -2 6 -13 5 -11 0 -14 -3 -6 -6z"/>
<path d="M4760 2570 c-13 -8 -12 -10 3 -10 9 0 17 5 17 10 0 12 -1 12 -20 0z"/>
<path d="M3261 6704 c0 -11 3 -14 6 -6 3 7 2 16 -1 19 -3 4 -6 -2 -5 -13z"/>
<path d="M3283 6473 c5 -25 3 -33 -8 -33 -17 0 -20 -16 -6 -24 5 -4 12 0 14 6
3 7 6 4 6 -7 1 -11 10 -44 21 -73 24 -62 25 -82 5 -82 -22 0 -18 -18 7 -31 17
-9 23 -9 26 0 2 6 9 8 15 4 6 -4 8 -1 4 8 -40 93 -59 148 -68 196 -6 32 -13
60 -16 63 -3 3 -3 -10 0 -27z"/>
<path d="M3273 6344 c-8 -8 -9 -15 -3 -19 6 -3 10 -1 10 5 0 6 5 8 10 5 6 -3
10 -2 10 4 0 17 -14 20 -27 5z"/>
<path d="M3280 6270 c0 -5 4 -10 9 -10 6 0 13 5 16 10 3 6 -1 10 -9 10 -9 0
-16 -4 -16 -10z"/>
<path d="M2247 4513 c-4 -3 -7 -11 -7 -17 0 -6 5 -5 12 2 6 6 9 14 7 17 -3 3
-9 2 -12 -2z"/>
<path d="M1434 3669 c-4 -7 1 -16 10 -21 14 -8 15 -13 5 -24 -9 -11 -8 -14 4
-14 9 0 19 -5 23 -12 5 -7 3 -8 -5 -4 -8 5 -14 1 -18 -12 -3 -13 -11 -18 -19
-15 -8 3 -11 10 -7 17 4 6 -2 4 -12 -4 -18 -14 -18 -15 3 -18 12 -2 22 -8 22
-13 0 -6 4 -8 9 -4 17 10 21 -13 5 -29 -8 -9 -11 -16 -5 -16 6 0 11 -8 12 -17
1 -10 6 -1 11 20 6 20 14 37 19 37 14 0 11 18 -3 23 -7 2 -3 2 10 0 12 -2 22
-1 22 3 0 3 -18 30 -39 60 -25 35 -42 51 -47 43z"/>
<path d="M1441 3308 c0 -9 -4 -25 -7 -35 -5 -14 -4 -15 5 -7 7 7 11 22 8 35
-2 13 -5 16 -6 7z"/>
<path d="M1447 3243 c-13 -12 -7 -23 11 -22 10 0 12 3 4 6 -6 2 -10 9 -6 14 6
10 0 12 -9 2z"/>
<path d="M1458 3179 c-12 -21 -14 -29 -5 -29 19 0 67 -24 67 -32 0 -5 -7 -8
-15 -8 -8 0 -15 -4 -15 -10 0 -14 27 -12 34 3 4 6 4 2 2 -11 -2 -12 0 -20 5
-16 5 3 10 -7 11 -23 0 -15 2 -34 2 -42 1 -8 7 -16 15 -19 8 -3 11 0 7 7 -10
16 9 14 23 -3 15 -18 57 -26 69 -14 6 6 12 6 16 -1 4 -6 12 -11 18 -11 27 0
-19 31 -54 36 -30 5 -42 13 -49 32 -5 14 -23 40 -39 59 -17 19 -30 40 -30 48
0 14 -11 19 -37 16 -15 -2 -18 16 -3 21 5 2 6 8 2 15 -5 8 -13 2 -24 -18z
m109 -141 c-3 -8 -6 -5 -6 6 -1 11 2 17 5 13 3 -3 4 -12 1 -19z"/>
<path d="M2153 3065 c-7 -8 -9 -16 -5 -19 4 -3 13 4 20 15 14 22 3 25 -15 4z"/>
<path d="M1600 3030 c0 -5 5 -10 11 -10 5 0 7 5 4 10 -3 6 -8 10 -11 10 -2 0
-4 -4 -4 -10z"/>
<path d="M1710 2960 c0 -5 5 -10 10 -10 6 0 10 5 10 10 0 6 -4 10 -10 10 -5 0
-10 -4 -10 -10z"/>
<path d="M1755 2949 c-11 -16 -1 -19 13 -3 7 8 8 14 3 14 -5 0 -13 -5 -16 -11z"/>
<path d="M2357 2949 c-20 -12 -23 -29 -3 -29 17 0 40 26 29 33 -5 3 -16 1 -26
-4z"/>
<path d="M2467 2735 c-4 -8 -2 -17 3 -20 6 -4 10 3 10 14 0 25 -6 27 -13 6z"/>
</g>
</svg>
